<svg id="a" xmlns="http://www.w3.org/2000/svg" viewBox="0 0 3997.93 2920.62"><defs><style>.b,.c,.d{stroke-width:0px;}.c{fill:#e0e3ff;}.d{fill:#fdd835;}</style></defs><ellipse class="c" cx="1998.96" cy="2394.87" rx="1998.96" ry="525.76"/><path class="d" d="M2046.41,0h0v1361.04h1362.2C3407.98,609.25,2798.35,0,2046.41,0Z"/><path class="b" d="M2968.65,1194.32l10.53,173.98,65.47-173.98h120.42l-56.32,356.1h-78.75l38-238.08-90.2,238.08h-54.94l-14.19-238.08-38,238.08h-78.75l56.32-356.1h120.42Z"/><path class="b" d="M3280.31,1194.32l-56.32,356.1h-77.83l56.32-356.1h77.83Z"/><path class="b" d="M3409.42,1194.32l41.67,194.84,30.68-194.84h78.75l-56.32,356.1h-92.49l-41.21-196.36-31.13,196.36h-78.75l56.32-356.1h92.49Z"/><path class="b" d="M2048.51,550.78c-16.77,0-30.36-13.59-30.36-30.36v-111.19c0-16.77,13.59-30.36,30.36-30.36s30.36,13.59,30.36,30.36v111.19c0,16.77-13.59,30.36-30.36,30.36Z"/><path class="b" d="M2048.51,2343.22c-16.77,0-30.36-13.59-30.36-30.36v-111.2c0-16.77,13.59-30.36,30.36-30.36s30.36,13.59,30.36,30.36v111.2c0,16.77-13.59,30.36-30.36,30.36Z"/><path class="b" d="M1207.89,1391.4h-111.2c-16.77,0-30.36-13.59-30.36-30.36s13.59-30.36,30.36-30.36h111.2c16.77,0,30.36,13.59,30.36,30.36s-13.59,30.36-30.36,30.36Z"/><path class="b" d="M2456.24,656.3c-4.98,0-10.03-1.23-14.7-3.82-14.66-8.13-19.96-26.61-11.82-41.27l53.94-97.24c8.14-14.66,26.61-19.95,41.27-11.82,14.66,8.13,19.96,26.61,11.82,41.27l-53.94,97.24c-5.55,10-15.9,15.64-26.58,15.64Z"/><path class="b" d="M1586.79,2223.76c-4.98,0-10.03-1.23-14.7-3.82-14.66-8.13-19.96-26.61-11.82-41.27l53.94-97.24c8.14-14.67,26.62-19.95,41.27-11.82,14.66,8.13,19.96,26.61,11.82,41.27l-53.94,97.24c-5.55,10-15.9,15.64-26.58,15.64Z"/><path class="b" d="M2880.83,1853.1c-4.98,0-10.03-1.23-14.7-3.82l-97.24-53.94c-14.66-8.13-19.96-26.61-11.82-41.27,8.14-14.66,26.61-19.96,41.27-11.82l97.24,53.94c14.66,8.13,19.96,26.61,11.82,41.27-5.55,10-15.9,15.64-26.58,15.64Z"/><path class="b" d="M1313.37,983.65c-4.98,0-10.03-1.23-14.7-3.82l-97.24-53.94c-14.66-8.13-19.96-26.61-11.82-41.27,8.14-14.66,26.61-19.95,41.27-11.82l97.24,53.94c14.66,8.13,19.96,26.61,11.82,41.27-5.55,10-15.9,15.64-26.58,15.64Z"/><path class="b" d="M1640.79,656.3c-10.68,0-21.03-5.64-26.58-15.64l-53.94-97.24c-8.13-14.66-2.84-33.14,11.82-41.27,14.65-8.13,33.14-2.84,41.27,11.82l53.94,97.24c8.13,14.66,2.84,33.14-11.82,41.27-4.66,2.59-9.72,3.82-14.7,3.82Z"/><path class="b" d="M2510.23,2223.76c-10.68,0-21.03-5.64-26.58-15.64l-53.94-97.24c-8.13-14.66-2.84-33.14,11.82-41.27,14.65-8.14,33.14-2.84,41.27,11.82l53.94,97.24c8.13,14.66,2.84,33.14-11.82,41.27-4.66,2.59-9.72,3.82-14.7,3.82Z"/><path class="b" d="M1216.19,1853.1c-10.68,0-21.03-5.64-26.58-15.64-8.13-14.66-2.84-33.14,11.82-41.27l97.24-53.94c14.65-8.14,33.14-2.84,41.27,11.82,8.13,14.66,2.84,33.14-11.82,41.27l-97.24,53.94c-4.66,2.59-9.72,3.82-14.7,3.82Z"/><path class="b" d="M2783.65,983.65c-10.68,0-21.03-5.64-26.58-15.64-8.13-14.66-2.84-33.14,11.82-41.27l97.24-53.94c14.66-8.14,33.14-2.84,41.27,11.82,8.13,14.66,2.84,33.14-11.82,41.27l-97.24,53.94c-4.66,2.59-9.72,3.82-14.7,3.82Z"/><path class="b" d="M1953.54,918.98l-139.65,883.09h-194.15l99.91-630.78h-116.94l21.57-136.25,191.88-116.06h137.38Z"/><path class="b" d="M2138.14,1509.39c2.27,75.69,21.57,98.4,77.21,98.4s85.15-47.94,86.29-89.57c1.14-68.12-38.6-97.14-126.03-97.14h-195.28l79.48-502.1h525.67l-34.06,216.99h-330.39l-11.35,75.69h69.26c210.04,0,252.05,187.97,233.88,306.56-21.57,132.46-121.48,306.56-331.53,306.56-238.43,0-252.05-164-244.1-268.71l200.96-46.68Z"/></svg>